<svg fill="none" xmlns="http://www.w3.org/2000/svg" viewBox="0 0 48 48">
  <path d="M47.718 20.473a1.11 1.11 0 00-1.091-.928h-2.254c-.716-.211-1.292-.775-1.538-1.526a19.457 19.457 0 00-1.667-3.78 1.082 1.082 0 01.164-1.315l1.808-1.807c.388-.388.446-.998.117-1.444a23.942 23.942 0 00-4.895-4.907c-.434-.329-1.056-.27-1.443.117L35.11 6.691c-.352.352-.88.411-1.315.164a19.97 19.97 0 00-5.4-2.113V1.338c0-.54-.387-1.01-.927-1.091A25.891 25.891 0 0023.994 0c-1.186 0-2.336.094-3.475.27-.528.07-.915.552-.915 1.092v3.404a19.234 19.234 0 00-5.4 2.113 1.082 1.082 0 01-1.315-.164l-1.82-1.808a1.108 1.108 0 00-1.443-.118 24.123 24.123 0 00-4.884 4.896c-.328.434-.27 1.056.118 1.443l1.808 1.808c.352.352.41.88.164 1.315a19.46 19.46 0 00-1.667 3.78 2.278 2.278 0 01-1.538 1.526H1.362c-.54 0-1.01.387-1.092.927a22.973 22.973 0 000 7.032 1.11 1.11 0 001.092.927h2.254a2.332 2.332 0 011.537 1.514 19.46 19.46 0 001.667 3.78c.247.435.188.963-.164 1.315L4.848 36.86a1.108 1.108 0 00-.117 1.444 24.238 24.238 0 004.895 4.907c.434.328 1.056.27 1.444-.118l1.807-1.808c.353-.352.88-.41 1.315-.164a19.97 19.97 0 005.4 2.113v3.404c0 .54.388 1.01.927 1.092 1.14.164 2.29.27 3.475.27 1.186 0 2.336-.094 3.475-.27.54-.082.927-.552.927-1.092v-3.404a19.234 19.234 0 005.4-2.113 1.082 1.082 0 011.315.164l1.808 1.808c.387.388 1.01.446 1.443.118a23.942 23.942 0 004.895-4.907c.33-.435.27-1.057-.117-1.444l-1.808-1.808a1.082 1.082 0 01-.164-1.315 19.457 19.457 0 001.667-3.78 2.24 2.24 0 011.538-1.514h2.254c.54 0 1.01-.387 1.091-.927.176-1.15.27-2.324.27-3.522a21.824 21.824 0 00-.27-3.521zm-10.893 5.575c-.834 5.47-5.306 9.943-10.777 10.777A12.996 12.996 0 0111.164 21.94c.833-5.47 5.306-9.943 10.776-10.776 8.78-1.339 16.235 6.104 14.885 14.884z" fill="url(#uU7E8cGztthAa)"/>
  <defs>
    <linearGradient id="uU7E8cGztthAa" x1="46.078" y1="1.6" x2=".004" y2="50.084" gradientUnits="userSpaceOnUse">
      <stop stop-color="#A5FECA"/>
      <stop offset=".283" stop-color="#3EDCEB"/>
      <stop offset=".624" stop-color="#2594FF"/>
      <stop offset="1" stop-color="#53F"/>
    </linearGradient>
  </defs>
</svg>
