<svg fill="none" xmlns="http://www.w3.org/2000/svg" viewBox="0 0 48 48">
  <path d="M44.769 17.191C42.84 7.428 34.059 0 24 0 13.94 0 5.16 7.428 3.231 17.191 1.382 17.64 0 19.297 0 21.281v11.25a4.223 4.223 0 004.219 4.219H7.03c.778 0 1.407-.629 1.407-1.406V18.469c0-.777-.63-1.407-1.407-1.407h-.837C8.129 8.957 15.52 2.813 24 2.813c8.479 0 15.87 6.144 17.806 14.25h-.837c-.778 0-1.407.63-1.407 1.407v16.875c0 .777.63 1.397 1.407 1.397h1.264c-.654 3.205-3.494 5.634-6.89 5.634H27.96c-.583-1.633-2.13-2.813-3.96-2.813a4.223 4.223 0 00-4.219 4.22A4.223 4.223 0 0024 48c1.83 0 3.377-1.18 3.96-2.813h7.384c5.021 0 9.13-3.795 9.724-8.659C46.763 35.98 48 34.406 48 32.531v-11.25c0-1.984-1.382-3.642-3.231-4.09z" fill="url(#mLuemAbH2tITa)"/>
  <defs>
    <linearGradient id="mLuemAbH2tITa" x1="46.089" y1="1.6" x2=".015" y2="50.094" gradientUnits="userSpaceOnUse">
      <stop stop-color="#A5FECA"/>
      <stop offset=".283" stop-color="#3EDCEB"/>
      <stop offset=".624" stop-color="#2594FF"/>
      <stop offset="1" stop-color="#53F"/>
    </linearGradient>
  </defs>
</svg>
