<svg fill="none" xmlns="http://www.w3.org/2000/svg" viewBox="0 0 132 36">
  <path d="M1.943 25.142S-.787 17.483.225 13.008C1.767 6.21 17.097 6.554 17.097 6.554s-6.035 1.764-9.163 5.163c-6.431 6.928-5.99 13.425-5.99 13.425z" fill="#007EFF"/>
  <path d="M3.795 7.759s5.419-6.153 9.912-7.53c6.828-2.109 14.185 11.058 14.185 11.058S23.31 7.07 18.729 6.124C9.346 4.1 3.795 7.759 3.795 7.759z" fill="#00A6FF"/>
  <path d="M20.138.574s8.15 1.506 11.63 4.604c5.242 4.734-2.688 17.514-2.688 17.514s1.454-5.982 0-10.328C26.13 3.457 20.138.575 20.138.575z" fill="#00D4FF"/>
  <path d="M34.629 10.856s2.731 7.659 1.718 12.134c-1.542 6.798-16.872 6.454-16.872 6.454s6.035-1.764 9.163-5.163c6.476-6.928 5.99-13.425 5.99-13.425z" fill="#00F5FF"/>
  <path d="M32.826 28.242s-5.419 6.154-9.912 7.53c-6.828 2.11-14.185-11.058-14.185-11.058s4.581 4.217 9.163 5.164c9.383 2.022 14.934-1.636 14.934-1.636z" fill="#00D4FF"/>
  <path d="M16.482 35.427s-8.15-1.507-11.63-4.605C-.39 26.09 7.54 13.31 7.54 13.31s-1.454 5.981 0 10.327c2.907 8.908 8.942 11.79 8.942 11.79z" fill="#00A6FF"/>
  <path d="M41.295 27.509V10.34h5.418a9.02 9.02 0 012.379.302c.66.172 1.233.43 1.762.86a3.61 3.61 0 011.101 1.463c.264.688.397 1.377.397 2.108 0 .388-.044.732-.133 1.12-.088.343-.22.688-.396 1.032-.176.344-.44.602-.705.86a4.036 4.036 0 01-1.013.646c.396.086.793.301 1.145.56.309.257.573.558.75.903a3.5 3.5 0 01.44 1.119c.088.387.132.817.132 1.204 0 1.678-.485 2.926-1.41 3.787-.925.86-2.29 1.29-4.096 1.29h-5.771v-.085zm3.568-9.983h1.85a2.145 2.145 0 001.586-.516c.396-.43.573-1.033.529-1.592a2.518 2.518 0 00-.485-1.678 2.145 2.145 0 00-1.586-.517h-1.894v4.303zm0 2.496v4.604h2.29c.309 0 .617-.043.882-.173.22-.129.44-.258.616-.473.176-.215.265-.43.353-.688.088-.302.088-.603.088-.904a2.935 2.935 0 00-.397-1.721 1.584 1.584 0 00-1.41-.645h-2.422zm9.075 7.487V10.34h5.418a9.02 9.02 0 012.379.302c.66.172 1.233.43 1.762.86a3.61 3.61 0 011.101 1.463c.265.688.397 1.377.397 2.108 0 .388-.044.732-.132 1.12a4.94 4.94 0 01-.397 1.032c-.176.344-.44.602-.705.86a4.034 4.034 0 01-1.013.646c.397.086.793.301 1.146.56.308.257.572.558.748.903.22.344.353.731.44 1.119.089.387.133.817.133 1.204 0 1.678-.485 2.926-1.41 3.787-.925.86-2.29 1.29-4.096 1.29h-5.771v-.085zm3.524-9.983h1.85a2.145 2.145 0 001.586-.516c.396-.43.573-1.033.529-1.592a2.518 2.518 0 00-.485-1.678 2.145 2.145 0 00-1.586-.517h-1.894v4.303zm0 2.496v4.604h2.29c.31 0 .617-.043.882-.173.22-.129.44-.258.616-.473.177-.215.265-.43.353-.688.088-.302.088-.603.088-.904a2.935 2.935 0 00-.397-1.721 1.584 1.584 0 00-1.41-.645h-2.422zm21.012 1.764c-.089 1.98-.661 3.442-1.674 4.432-1.014.99-2.511 1.506-4.406 1.506a7.704 7.704 0 01-2.599-.473 4.794 4.794 0 01-1.938-1.42 5.865 5.865 0 01-1.19-2.324 12.874 12.874 0 01-.395-3.184v-2.926c-.045-1.075.132-2.151.44-3.184.264-.86.66-1.635 1.233-2.323a5.75 5.75 0 011.939-1.42 7.704 7.704 0 012.599-.473c1.938 0 3.391.516 4.36 1.549 1.014 1.032 1.542 2.538 1.719 4.518h-3.569c0-.517-.044-1.033-.176-1.55-.044-.344-.22-.688-.44-.99a1.314 1.314 0 00-.75-.515c-.352-.13-.748-.173-1.144-.173-.44 0-.837.086-1.234.216-.352.172-.66.43-.837.774a5.14 5.14 0 00-.484 1.377c-.088.688-.132 1.42-.132 2.108v3.098c0 .689.044 1.377.132 2.066.044.473.22.946.44 1.377.176.3.485.602.793.774.397.172.837.258 1.278.258.352 0 .748-.043 1.1-.129.31-.086.573-.258.75-.473a1.89 1.89 0 00.44-.947c.132-.473.176-.99.176-1.506h3.569v-.043zm4.672 5.723h-3.568V10.34h3.568v17.17zm3.391-12.779l.044 2.022a4.881 4.881 0 011.498-1.635 3.833 3.833 0 012.026-.603c.485 0 1.013.086 1.454.259.44.172.837.43 1.101.817.309.43.573.947.705 1.463.176.688.264 1.42.22 2.151v8.305h-1.321v-8.305c0-.559-.044-1.118-.176-1.635-.088-.387-.265-.731-.485-1.075-.22-.259-.484-.474-.793-.56a3.026 3.026 0 00-1.057-.172c-.397 0-.749.086-1.101.258a4.183 4.183 0 00-.881.646c-.265.258-.485.56-.705.903-.22.345-.353.689-.485 1.076v8.864H85.26v-12.78h1.277zm13.523 11.79c.352 0 .704-.044 1.057-.13a2.35 2.35 0 00.925-.473 2.21 2.21 0 00.661-.904c.176-.473.308-.946.308-1.42h1.277a6.333 6.333 0 01-.396 1.808c-.22.473-.529.946-.925 1.29a5.189 5.189 0 01-1.322.818 5.089 5.089 0 01-1.585.258c-1.586 0-2.731-.516-3.525-1.506-.792-.99-1.189-2.453-1.189-4.432v-1.42c0-1.936.397-3.442 1.19-4.432.793-.99 1.982-1.506 3.524-1.506a5.45 5.45 0 011.674.258c.484.173.969.43 1.321.818.396.387.705.904.881 1.42.22.645.352 1.334.397 2.022h-1.278a8.297 8.297 0 00-.264-1.506c-.132-.387-.309-.731-.617-1.032a2.628 2.628 0 00-.925-.603c-.352-.129-.749-.172-1.145-.172-.529 0-1.102.086-1.586.301-.44.215-.793.517-1.057.904-.265.43-.485.947-.573 1.463a10.02 10.02 0 00-.176 1.98v1.42c0 .645.044 1.333.176 1.978.088.517.308 1.033.573 1.463.264.388.616.689 1.057.904.44.344 1.013.516 1.542.43zm5.375-6.023c0-.86.132-1.721.352-2.538.176-.689.529-1.291.969-1.85.397-.474.925-.904 1.498-1.163a5.043 5.043 0 013.876 0 3.9 3.9 0 011.498 1.162c.44.56.793 1.162.969 1.85.22.818.352 1.679.352 2.54v1.333c0 .86-.132 1.721-.352 2.539-.176.688-.529 1.29-.969 1.85-.397.473-.925.86-1.498 1.119a5.043 5.043 0 01-3.876 0 4.247 4.247 0 01-1.498-1.12c-.44-.559-.793-1.16-.969-1.85a9.824 9.824 0 01-.352-2.538v-1.334zm1.321 1.291c0 .645.088 1.334.22 1.98a5.08 5.08 0 00.661 1.505c.308.387.661.732 1.101.947a3.43 3.43 0 001.454.344c.529 0 1.057-.129 1.498-.344a2.47 2.47 0 001.057-.947c.308-.473.484-.99.617-1.506a10.1 10.1 0 00.22-1.979v-1.334c0-.645-.088-1.29-.22-1.936a5.11 5.11 0 00-.661-1.506 2.911 2.911 0 00-1.101-.947 3.155 3.155 0 00-2.908 0 2.78 2.78 0 00-1.057.947 4.643 4.643 0 00-.661 1.506 9.677 9.677 0 00-.22 1.936v1.334zm15.2-5.809c-.132-.043-.264-.043-.396-.043-.133 0-.265-.043-.441-.043-.352 0-.705.086-1.057.215a2.813 2.813 0 00-.837.56 4.71 4.71 0 00-.617.903 4.842 4.842 0 00-.396 1.119v8.82h-1.322V14.731h1.322l.044 1.893a4.232 4.232 0 011.189-1.592c.529-.387 1.145-.602 1.806-.56.132 0 .309 0 .441.044.132.043.22.086.352.086l-.088 1.377zM132 21.743c0 .904-.089 1.807-.265 2.668-.132.688-.44 1.334-.837 1.893-.308.473-.793.86-1.321 1.119-.573.258-1.146.387-1.762.344a4.67 4.67 0 01-2.027-.473c-.572-.302-1.057-.732-1.365-1.291v6.454h-1.322V14.73h1.234l.044 1.764a4.395 4.395 0 011.365-1.463 4.172 4.172 0 012.027-.517c.616 0 1.233.13 1.806.345.528.215.969.602 1.321 1.075.397.56.661 1.205.837 1.85.176.904.265 1.85.265 2.754v1.205zm-1.366-1.205c0-1.635-.264-2.84-.793-3.614-.529-.775-1.454-1.205-2.423-1.162-.396 0-.749.043-1.101.172-.308.086-.573.258-.837.474-.22.215-.44.43-.617.688a4.873 4.873 0 00-.44.817v6.713c.132.258.308.516.484.774a2.962 2.962 0 001.498.99 4.45 4.45 0 001.057.13c.969.042 1.895-.388 2.423-1.163.529-.774.793-1.979.793-3.614v-1.205h-.044z" fill="#fff"/>
</svg>
