<svg fill="none" xmlns="http://www.w3.org/2000/svg" viewBox="0 0 23 22">
  <mask id="IiT1DzKXWUDnb" fill="#fff">
    <path d="M11.01 22A11.017 11.017 0 01.838 15.21 10.99 10.99 0 013.225 3.222 11.013 11.013 0 0115.223.837 10.993 10.993 0 0122.02 11a11.007 11.007 0 01-3.229 7.775A11.027 11.027 0 0111.01 22zm.656-6.624a.158.158 0 00-.159.159v5.243a.159.159 0 00.159.159h.036c1.674-.391 3.223-2.183 4.11-4.804a.153.153 0 000-.127.15.15 0 00-.1-.078 18.568 18.568 0 00-4.041-.552h-.005zm-1.317 0a18.69 18.69 0 00-4.03.555.149.149 0 00-.1.078.164.164 0 00-.012.127c.9 2.618 2.447 4.4 4.11 4.788h.037a.16.16 0 00.167-.146v-5.243a.154.154 0 00-.05-.113.157.157 0 00-.11-.046h-.012zm-5.27.94a.14.14 0 00-.054 0c-.592.21-1.165.473-1.712.783a.159.159 0 00-.044.244 10.133 10.133 0 003.582 2.758.16.16 0 00.188-.244 10.886 10.886 0 01-1.813-3.423.16.16 0 00-.083-.09.134.134 0 00-.064-.027zm11.862 0a.166.166 0 00-.152.11 10.914 10.914 0 01-1.813 3.423.158.158 0 00.122.259.164.164 0 00.069-.015 10.144 10.144 0 003.58-2.737.158.158 0 00-.045-.245 10.483 10.483 0 00-1.713-.785.188.188 0 00-.048-.012v.003zm.834-4.827a.159.159 0 00-.16.154 17.546 17.546 0 01-.469 3.537.157.157 0 00.103.186c.716.249 1.406.566 2.06.948a.161.161 0 00.158.002.157.157 0 00.057-.055 9.98 9.98 0 001.468-4.594.156.156 0 00-.094-.157.164.164 0 00-.062-.014l-3.061-.007zm-16.598 0a.161.161 0 00-.149.107.154.154 0 00-.008.064 9.979 9.979 0 001.468 4.593.16.16 0 00.216.052 11.777 11.777 0 012.06-.947.156.156 0 00.102-.185 17.54 17.54 0 01-.462-3.523.159.159 0 00-.16-.154l-3.067-.007zm4.384 0a.164.164 0 00-.115.049.161.161 0 00-.044.117c.038 1.08.185 2.154.438 3.205a.151.151 0 00.071.098.164.164 0 00.083.022.107.107 0 00.04 0 19.684 19.684 0 014.325-.602.157.157 0 00.154-.156v-2.567a.159.159 0 00-.159-.159l-4.793-.007zm6.117 0a.16.16 0 00-.16.159v2.576a.157.157 0 00.155.157c1.46.039 2.91.24 4.326.601h.039a.161.161 0 00.083-.022.171.171 0 00.073-.1 16.22 16.22 0 00.436-3.202.162.162 0 00-.044-.118.164.164 0 00-.115-.049l-4.793-.002zm7.712-5.825a.142.142 0 00-.081.024 11.84 11.84 0 01-2.06.946.157.157 0 00-.103.186c.276 1.158.433 2.34.47 3.53a.159.159 0 00.159.154h3.068a.161.161 0 00.149-.107.153.153 0 00.008-.064 9.98 9.98 0 00-1.468-4.593.157.157 0 00-.142-.076zm-3.364 1.35h-.04c-1.415.36-2.866.561-4.325.6a.157.157 0 00-.154.16v2.566a.159.159 0 00.159.159h4.793a.155.155 0 00.149-.103.16.16 0 00.01-.063 16.236 16.236 0 00-.436-3.203.17.17 0 00-.073-.1.164.164 0 00-.083-.017zm-10.032 0a.164.164 0 00-.083.021.152.152 0 00-.07.098 16.12 16.12 0 00-.439 3.205.161.161 0 00.097.154c.02.008.04.012.062.012h4.793a.16.16 0 00.16-.16V7.779a.158.158 0 00-.095-.146.157.157 0 00-.06-.013c-1.46-.039-2.91-.24-4.326-.601a.107.107 0 00-.039-.005zM2.63 5.665a.16.16 0 00-.134.074 9.98 9.98 0 00-1.468 4.593.154.154 0 00.041.12.161.161 0 00.115.05h3.06a.16.16 0 00.16-.153c.036-1.19.194-2.372.47-3.53a.156.156 0 00-.103-.186 11.732 11.732 0 01-2.06-.946.162.162 0 00-.08-.022zm9.036-4.595a.16.16 0 00-.167.151v5.244a.156.156 0 00.05.114.16.16 0 00.11.044 18.38 18.38 0 004.029-.554.149.149 0 00.1-.079.153.153 0 000-.127c-.863-2.618-2.412-4.397-4.086-4.788l-.036-.005zm-1.312 0h-.036c-1.674.396-3.21 2.175-4.11 4.796a.164.164 0 00.053.177.15.15 0 00.059.028c1.319.331 2.67.516 4.03.552a.159.159 0 00.16-.159V1.223a.159.159 0 00-.16-.159l.004.008zm4.744.814a.16.16 0 00-.122.259 10.914 10.914 0 011.813 3.422.157.157 0 00.083.093.18.18 0 00.069.017.19.19 0 00.053 0 10.916 10.916 0 001.713-.785.159.159 0 00.044-.244 10.145 10.145 0 00-3.582-2.748.164.164 0 00-.07-.014zm-8.176 0a.147.147 0 00-.066.014 10.133 10.133 0 00-3.582 2.745.159.159 0 00.044.245c.546.31 1.12.572 1.712.782a.14.14 0 00.054 0 .164.164 0 00.069-.015.171.171 0 00.083-.092A10.887 10.887 0 017.049 2.14a.159.159 0 00-.123-.259l-.004.003z"/>
  </mask>
  <path d="M11.01 22A11.017 11.017 0 01.838 15.21 10.99 10.99 0 013.225 3.222 11.013 11.013 0 0115.223.837 10.993 10.993 0 0122.02 11a11.007 11.007 0 01-3.229 7.775A11.027 11.027 0 0111.01 22v0zm.656-6.624a.158.158 0 00-.159.159v5.243a.159.159 0 00.159.159h.036c1.674-.391 3.223-2.183 4.11-4.804a.153.153 0 000-.127.15.15 0 00-.1-.078 18.568 18.568 0 00-4.041-.552h-.005zm-1.317 0a18.69 18.69 0 00-4.03.555.149.149 0 00-.1.078.164.164 0 00-.012.127c.9 2.618 2.447 4.4 4.11 4.788h.037a.16.16 0 00.167-.146v-5.243a.154.154 0 00-.05-.113.157.157 0 00-.11-.046h-.012zm-5.27.94a.14.14 0 00-.054 0c-.592.21-1.165.473-1.712.783a.159.159 0 00-.044.244 10.133 10.133 0 003.582 2.758.16.16 0 00.188-.244 10.886 10.886 0 01-1.813-3.423.16.16 0 00-.083-.09.134.134 0 00-.064-.027zm11.862 0a.166.166 0 00-.152.11 10.914 10.914 0 01-1.813 3.423.158.158 0 00.122.259.164.164 0 00.069-.015 10.144 10.144 0 003.58-2.737.158.158 0 00-.045-.245 10.483 10.483 0 00-1.713-.785.188.188 0 00-.048-.012v.003zm.834-4.827a.159.159 0 00-.16.154 17.546 17.546 0 01-.469 3.537.157.157 0 00.103.186c.716.249 1.406.566 2.06.948a.161.161 0 00.158.002.157.157 0 00.057-.055 9.98 9.98 0 001.468-4.594.156.156 0 00-.094-.157.164.164 0 00-.062-.014l-3.061-.007zm-16.598 0a.161.161 0 00-.149.107.154.154 0 00-.008.064 9.979 9.979 0 001.468 4.593.16.16 0 00.216.052 11.777 11.777 0 012.06-.947.156.156 0 00.102-.185 17.54 17.54 0 01-.462-3.523.159.159 0 00-.16-.154l-3.067-.007zm4.384 0a.164.164 0 00-.115.049.161.161 0 00-.044.117c.038 1.08.185 2.154.438 3.205a.151.151 0 00.071.098.164.164 0 00.083.022.107.107 0 00.04 0 19.684 19.684 0 014.325-.602.157.157 0 00.154-.156v-2.567a.159.159 0 00-.159-.159l-4.793-.007zm6.117 0a.16.16 0 00-.16.159v2.576a.157.157 0 00.155.157c1.46.039 2.91.24 4.326.601h.039a.161.161 0 00.083-.022.171.171 0 00.073-.1 16.22 16.22 0 00.436-3.202.162.162 0 00-.044-.118.164.164 0 00-.115-.049l-4.793-.002zm7.712-5.825a.142.142 0 00-.081.024 11.84 11.84 0 01-2.06.946.157.157 0 00-.103.186c.276 1.158.433 2.34.47 3.53a.159.159 0 00.159.154h3.068a.161.161 0 00.149-.107.153.153 0 00.008-.064 9.98 9.98 0 00-1.468-4.593.157.157 0 00-.142-.076v0zm-3.364 1.35h-.04c-1.415.36-2.866.561-4.325.6a.157.157 0 00-.154.16v2.566a.159.159 0 00.159.159h4.793a.155.155 0 00.149-.103.16.16 0 00.01-.063 16.236 16.236 0 00-.436-3.203.17.17 0 00-.073-.1.164.164 0 00-.083-.017zm-10.032 0a.164.164 0 00-.083.021.152.152 0 00-.07.098 16.12 16.12 0 00-.439 3.205.161.161 0 00.097.154c.02.008.04.012.062.012h4.793a.16.16 0 00.16-.16V7.779a.158.158 0 00-.095-.146.157.157 0 00-.06-.013c-1.46-.039-2.91-.24-4.326-.601a.107.107 0 00-.039-.005v0zM2.63 5.665a.16.16 0 00-.134.074 9.98 9.98 0 00-1.468 4.593.154.154 0 00.041.12.161.161 0 00.115.05h3.06a.16.16 0 00.16-.153c.036-1.19.194-2.372.47-3.53a.156.156 0 00-.103-.186 11.732 11.732 0 01-2.06-.946.162.162 0 00-.08-.022v0zm9.036-4.595a.16.16 0 00-.167.151v5.244a.156.156 0 00.05.114.16.16 0 00.11.044 18.38 18.38 0 004.029-.554.149.149 0 00.1-.079.153.153 0 000-.127c-.863-2.618-2.412-4.397-4.086-4.788l-.036-.005zm-1.312 0h-.036c-1.674.396-3.21 2.175-4.11 4.796a.164.164 0 00.053.177.15.15 0 00.059.028c1.319.331 2.67.516 4.03.552v0a.159.159 0 00.16-.159V1.223a.159.159 0 00-.16-.159l.004.008zm4.744.814a.16.16 0 00-.122.259 10.914 10.914 0 011.813 3.422.157.157 0 00.083.093.18.18 0 00.069.017.19.19 0 00.053 0 10.916 10.916 0 001.713-.785.159.159 0 00.044-.244 10.145 10.145 0 00-3.582-2.748.164.164 0 00-.07-.014v0zm-8.176 0a.147.147 0 00-.066.014 10.133 10.133 0 00-3.582 2.745.159.159 0 00.044.245c.546.31 1.12.572 1.712.782a.14.14 0 00.054 0 .164.164 0 00.069-.015.171.171 0 00.083-.092A10.887 10.887 0 017.049 2.14a.159.159 0 00-.123-.259l-.004.003z" fill="#fff" stroke="url(#IiT1DzKXWUDna)" stroke-width="2" mask="url(#IiT1DzKXWUDnb)"/>
  <defs>
    <linearGradient id="IiT1DzKXWUDna" x1="21.143" y1=".733" x2=".027" y2="22.979" gradientUnits="userSpaceOnUse">
      <stop stop-color="#A5FECA"/>
      <stop offset=".283" stop-color="#3EDCEB"/>
      <stop offset=".624" stop-color="#2594FF"/>
      <stop offset="1" stop-color="#53F"/>
    </linearGradient>
  </defs>
</svg>
